<svg xmlns="http://www.w3.org/2000/svg" xmlns:xlink="http://www.w3.org/1999/xlink" width="500" zoomAndPan="magnify" viewBox="0 0 375 374.999991" height="500" preserveAspectRatio="xMidYMid meet" version="1.0"><defs><filter x="0%" y="0%" width="100%" height="100%" id="id1"><feColorMatrix values="0 0 0 0 1 0 0 0 0 1 0 0 0 0 1 0 0 0 1 0" color-interpolation-filters="sRGB"/></filter><g/><mask id="id2"><g filter="url(#id1)"><rect x="-37.5" width="450" fill="#000000" y="-37.499999" height="449.999989" fill-opacity="0.7098"/></g></mask><clipPath id="id3"><path d="M 0.0390625 0.078125 L 37.960938 0.078125 L 37.960938 37.761719 L 0.0390625 37.761719 Z M 0.0390625 0.078125 " clip-rule="nonzero"/></clipPath><clipPath id="id4"><rect x="0" width="38" y="0" height="38"/></clipPath><mask id="id5"><g filter="url(#id1)"><rect x="-37.5" width="450" fill="#000000" y="-37.499999" height="449.999989" fill-opacity="0.7098"/></g></mask><clipPath id="id6"><path d="M 0.640625 0.359375 L 36.878906 0.359375 L 36.878906 36 L 0.640625 36 Z M 0.640625 0.359375 " clip-rule="nonzero"/></clipPath><clipPath id="id7"><rect x="0" width="37" y="0" height="37"/></clipPath><mask id="id8"><g filter="url(#id1)"><rect x="-37.5" width="450" fill="#000000" y="-37.499999" height="449.999989" fill-opacity="0.7098"/></g></mask><clipPath id="id9"><path d="M 1 1 L 9.800781 1 L 9.800781 9.839844 L 1 9.839844 Z M 1 1 " clip-rule="nonzero"/></clipPath><clipPath id="id10"><rect x="0" width="10" y="0" height="10"/></clipPath><mask id="id11"><g filter="url(#id1)"><rect x="-37.5" width="450" fill="#000000" y="-37.499999" height="449.999989" fill-opacity="0.7098"/></g></mask><clipPath id="id12"><path d="M 1 0.0390625 L 44.398438 0.0390625 L 44.398438 16.359375 L 1 16.359375 Z M 1 0.0390625 " clip-rule="nonzero"/></clipPath><clipPath id="id13"><rect x="0" width="45" y="0" height="17"/></clipPath><clipPath id="id14"><path d="M 51.324219 51.324219 L 323.574219 51.324219 L 323.574219 323.574219 L 51.324219 323.574219 Z M 51.324219 51.324219 " clip-rule="nonzero"/></clipPath></defs><g fill="#30afff" fill-opacity="1"><g transform="translate(91.679636, 232.244907)"><g><path d="M 6.625 4.234375 C 6.5625 4.191406 6.425781 4.132812 6.21875 4.0625 C 6.007812 4 5.789062 3.96875 5.5625 3.96875 C 5.144531 3.875 4.804688 3.65625 4.546875 3.3125 C 4.296875 2.96875 4.171875 2.578125 4.171875 2.140625 C 4.171875 1.898438 4.191406 1.710938 4.234375 1.578125 C 4.335938 1.472656 4.429688 1.207031 4.515625 0.78125 C 4.597656 0.363281 4.640625 -0.015625 4.640625 -0.359375 C 4.742188 -0.554688 4.828125 -0.765625 4.890625 -0.984375 C 4.960938 -1.210938 5.046875 -1.53125 5.140625 -1.9375 C 5.421875 -3.425781 6.050781 -5.9375 7.03125 -9.46875 C 8.019531 -13.007812 8.632812 -14.898438 8.875 -15.140625 L 8.875 -15.703125 C 8.875 -15.796875 8.90625 -15.992188 8.96875 -16.296875 C 9.039062 -16.609375 9.191406 -16.9375 9.421875 -17.28125 C 9.566406 -17.6875 9.679688 -18.082031 9.765625 -18.46875 C 9.847656 -18.863281 9.90625 -19.164062 9.9375 -19.375 C 10.070312 -19.539062 10.300781 -20.046875 10.625 -20.890625 C 10.945312 -21.742188 11.160156 -22.304688 11.265625 -22.578125 C 11.503906 -23.222656 11.800781 -23.976562 12.15625 -24.84375 C 12.507812 -25.707031 12.753906 -26.273438 12.890625 -26.546875 L 12.890625 -26.8125 C 12.960938 -26.875 13.140625 -27.21875 13.421875 -27.84375 C 13.710938 -28.476562 13.960938 -29.015625 14.171875 -29.453125 C 14.410156 -30.003906 15.039062 -31.414062 16.0625 -33.6875 C 16.15625 -33.925781 16.3125 -34.222656 16.53125 -34.578125 C 16.757812 -34.941406 16.875 -35.191406 16.875 -35.328125 C 17.007812 -35.554688 17.242188 -35.671875 17.578125 -35.671875 C 17.890625 -35.671875 18.207031 -35.5625 18.53125 -35.34375 C 18.851562 -35.125 19.097656 -34.84375 19.265625 -34.5 L 19.78125 -33.6875 L 17.9375 -30.015625 C 17.425781 -29.140625 16.984375 -28.289062 16.609375 -27.46875 C 16.242188 -26.65625 16.0625 -26.179688 16.0625 -26.046875 C 15.914062 -25.703125 15.644531 -25.003906 15.25 -23.953125 C 14.863281 -22.898438 14.554688 -22 14.328125 -21.25 C 14.148438 -20.738281 13.941406 -20.203125 13.703125 -19.640625 C 13.472656 -19.085938 13.304688 -18.691406 13.203125 -18.453125 C 12.929688 -17.835938 12.796875 -17.5 12.796875 -17.4375 C 12.796875 -17.570312 14.832031 -17.640625 18.90625 -17.640625 C 19.550781 -17.640625 20.695312 -17.65625 22.34375 -17.6875 C 24 -17.71875 25.03125 -17.769531 25.4375 -17.84375 L 28.078125 -18.09375 L 29.8125 -23.34375 C 30.15625 -24.53125 30.90625 -26.84375 32.0625 -30.28125 C 32.570312 -31.738281 32.976562 -32.675781 33.28125 -33.09375 C 33.582031 -33.519531 33.957031 -33.734375 34.40625 -33.734375 C 34.570312 -33.734375 34.816406 -33.65625 35.140625 -33.5 C 35.460938 -33.351562 35.675781 -33.160156 35.78125 -32.921875 C 36.15625 -32.546875 36.34375 -32.15625 36.34375 -31.75 C 36.34375 -31.28125 36.070312 -30.617188 35.53125 -29.765625 C 35.113281 -29.054688 34.535156 -27.710938 33.796875 -25.734375 C 33.484375 -24.816406 33.296875 -24.289062 33.234375 -24.15625 C 33.234375 -23.445312 33.0625 -22.921875 32.71875 -22.578125 C 32.582031 -22.441406 32.34375 -21.957031 32 -21.125 C 31.664062 -20.289062 31.5 -19.804688 31.5 -19.671875 C 31.5 -19.398438 31.445312 -19.101562 31.34375 -18.78125 C 31.238281 -18.457031 31.117188 -18.226562 30.984375 -18.09375 L 30.625 -16.875 C 29.4375 -12.550781 28.503906 -9.5625 27.828125 -7.90625 C 27.828125 -7.726562 27.738281 -7.414062 27.5625 -6.96875 C 27.394531 -6.53125 27.3125 -6.226562 27.3125 -6.0625 C 27.25 -5.820312 27.097656 -5.34375 26.859375 -4.625 C 26.617188 -3.914062 26.5 -3.492188 26.5 -3.359375 C 26.4375 -2.984375 26.300781 -2.390625 26.09375 -1.578125 C 25.582031 0.734375 25.328125 1.988281 25.328125 2.1875 C 25.265625 2.257812 25.164062 2.296875 25.03125 2.296875 C 24.894531 2.296875 24.679688 2.242188 24.390625 2.140625 C 24.097656 2.035156 23.882812 1.953125 23.75 1.890625 C 22.9375 1.441406 22.53125 0.929688 22.53125 0.359375 C 22.53125 -0.015625 22.679688 -0.507812 22.984375 -1.125 C 23.085938 -1.289062 23.410156 -2.394531 23.953125 -4.4375 L 24.40625 -6.3125 C 24.613281 -6.863281 25.078125 -8.476562 25.796875 -11.15625 C 26.367188 -13.226562 26.691406 -14.300781 26.765625 -14.375 L 26.765625 -14.890625 C 26.660156 -15.054688 25.414062 -15.140625 23.03125 -15.140625 C 20.351562 -15.140625 17.890625 -15.003906 15.640625 -14.734375 L 11.921875 -14.734375 C 11.753906 -14.359375 11.238281 -12.785156 10.375 -10.015625 C 9.507812 -7.242188 9.023438 -5.503906 8.921875 -4.796875 C 8.679688 -3.671875 8.304688 -2.113281 7.796875 -0.125 C 7.285156 1.863281 6.894531 3.316406 6.625 4.234375 Z M 6.625 4.234375 "/></g></g></g><g fill="#30afff" fill-opacity="1"><g transform="translate(120.424132, 232.244907)"><g><path d="M 33.484375 2.859375 C 33.484375 3.265625 33.210938 3.46875 32.671875 3.46875 C 32.085938 3.46875 31.3125 3.265625 30.34375 2.859375 C 29.382812 2.453125 28.492188 2.007812 27.671875 1.53125 C 27.066406 1.363281 26.1875 0.753906 25.03125 -0.296875 C 23.875 -1.359375 22.613281 -2.703125 21.25 -4.328125 C 18.90625 -3.035156 17.289062 -2.175781 16.40625 -1.75 C 15.53125 -1.332031 14.445312 -0.9375 13.15625 -0.5625 C 12.78125 -0.53125 12.234375 -0.515625 11.515625 -0.515625 C 9.890625 -0.515625 8.378906 -0.75 6.984375 -1.21875 C 6.609375 -1.320312 6.0625 -1.65625 5.34375 -2.21875 C 4.632812 -2.78125 4.128906 -3.226562 3.828125 -3.5625 C 3.648438 -3.664062 3.5625 -3.941406 3.5625 -4.390625 C 3.5625 -4.828125 3.648438 -5.382812 3.828125 -6.0625 C 4.023438 -6.707031 4.984375 -8.164062 6.703125 -10.4375 C 8.421875 -12.71875 10.113281 -14.691406 11.78125 -16.359375 C 11.132812 -17.273438 10.65625 -18.128906 10.34375 -18.921875 C 10.039062 -19.722656 9.890625 -20.535156 9.890625 -21.359375 C 9.890625 -23.054688 10.601562 -25.160156 12.03125 -27.671875 C 12.4375 -28.359375 13.015625 -29.109375 13.765625 -29.921875 C 14.515625 -30.734375 15.203125 -31.410156 15.828125 -31.953125 C 16.453125 -32.492188 16.800781 -32.71875 16.875 -32.625 C 16.976562 -32.445312 17.097656 -32.359375 17.234375 -32.359375 C 17.296875 -32.359375 17.367188 -32.375 17.453125 -32.40625 C 17.535156 -32.445312 17.613281 -32.46875 17.6875 -32.46875 C 17.820312 -32.53125 18.023438 -32.5625 18.296875 -32.5625 C 19.109375 -32.5625 20.0625 -32.394531 21.15625 -32.0625 C 22.476562 -31.882812 23.367188 -31.726562 23.828125 -31.59375 C 24.285156 -31.457031 24.703125 -31.171875 25.078125 -30.734375 C 26.367188 -29.742188 27.015625 -28.671875 27.015625 -27.515625 C 27.015625 -27.078125 26.65625 -26.398438 25.9375 -25.484375 C 25.226562 -24.566406 24.3125 -23.597656 23.1875 -22.578125 C 22.8125 -22.140625 22.410156 -21.707031 21.984375 -21.28125 C 21.566406 -20.851562 21.289062 -20.585938 21.15625 -20.484375 C 21.15625 -20.316406 21.0625 -20.125 20.875 -19.90625 C 20.6875 -19.6875 20.472656 -19.523438 20.234375 -19.421875 C 19.453125 -18.742188 18.550781 -17.925781 17.53125 -16.96875 C 16.507812 -16.019531 15.984375 -15.492188 15.953125 -15.390625 C 15.921875 -15.253906 16.34375 -14.570312 17.21875 -13.34375 C 18.101562 -12.125 19.03125 -10.945312 20 -9.8125 C 20.96875 -8.675781 21.554688 -8.109375 21.765625 -8.109375 C 23.023438 -9.328125 24.226562 -10.410156 25.375 -11.359375 C 26.226562 -12.109375 27.421875 -13.179688 28.953125 -14.578125 C 29.628906 -15.328125 30.179688 -15.90625 30.609375 -16.3125 C 31.035156 -16.71875 31.347656 -16.921875 31.546875 -16.921875 C 31.710938 -16.921875 31.9375 -16.785156 32.21875 -16.515625 C 32.6875 -16.410156 32.921875 -16.117188 32.921875 -15.640625 C 32.921875 -15.367188 32.867188 -15.101562 32.765625 -14.84375 C 32.671875 -14.59375 32.585938 -14.421875 32.515625 -14.328125 C 31.867188 -13.441406 30.832031 -12.367188 29.40625 -11.109375 C 27.976562 -9.847656 27.144531 -9.101562 26.90625 -8.875 C 25.789062 -7.882812 24.738281 -6.894531 23.75 -5.90625 C 23.851562 -5.769531 24.082031 -5.5 24.4375 -5.09375 C 24.789062 -4.6875 25.191406 -4.28125 25.640625 -3.875 C 26.796875 -2.6875 27.671875 -1.863281 28.265625 -1.40625 C 28.859375 -0.945312 29.546875 -0.597656 30.328125 -0.359375 C 31.410156 0.015625 32.207031 0.457031 32.71875 0.96875 C 33.226562 1.476562 33.484375 2.109375 33.484375 2.859375 Z M 14.265625 -18.203125 C 14.535156 -18.503906 15.367188 -19.25 16.765625 -20.4375 C 18.734375 -22.070312 20.320312 -23.507812 21.53125 -24.75 C 22.738281 -25.988281 23.34375 -27.082031 23.34375 -28.03125 C 23.34375 -28.195312 23.328125 -28.332031 23.296875 -28.4375 C 23.160156 -28.675781 22.597656 -28.988281 21.609375 -29.375 C 20.617188 -29.769531 19.851562 -29.953125 19.3125 -29.921875 C 18.664062 -29.953125 17.914062 -29.609375 17.0625 -28.890625 C 16.21875 -28.179688 15.375 -27.21875 14.53125 -26 C 13.476562 -24.5 12.953125 -23.035156 12.953125 -21.609375 C 12.953125 -20.347656 13.390625 -19.210938 14.265625 -18.203125 Z M 8.453125 -3.421875 C 9.171875 -3.179688 9.957031 -3.0625 10.8125 -3.0625 C 11.894531 -3.0625 13.019531 -3.296875 14.1875 -3.765625 C 15.363281 -4.242188 16.703125 -4.976562 18.203125 -5.96875 L 19.171875 -6.671875 L 17.890625 -8.15625 L 16.40625 -9.984375 C 16 -10.566406 15.660156 -11.023438 15.390625 -11.359375 C 14.984375 -11.734375 14.632812 -12.132812 14.34375 -12.5625 C 14.0625 -12.988281 13.882812 -13.269531 13.8125 -13.40625 C 13.644531 -13.40625 13.226562 -13.046875 12.5625 -12.328125 C 11.894531 -11.617188 11.410156 -11.007812 11.109375 -10.5 C 10.492188 -10.019531 10 -9.550781 9.625 -9.09375 C 9.257812 -8.632812 8.921875 -8.160156 8.609375 -7.671875 C 8.304688 -7.179688 8.085938 -6.832031 7.953125 -6.625 C 7.679688 -6.050781 7.546875 -5.488281 7.546875 -4.9375 C 7.546875 -4.332031 7.847656 -3.828125 8.453125 -3.421875 Z M 8.453125 -3.421875 "/></g></g></g><g fill="#30afff" fill-opacity="1"><g transform="translate(149.168629, 232.244907)"><g><path d="M 32.71875 -29.5625 C 32.75 -29.425781 32.765625 -29.273438 32.765625 -29.109375 C 32.765625 -28.972656 32.722656 -28.859375 32.640625 -28.765625 C 32.554688 -28.679688 32.460938 -28.625 32.359375 -28.59375 C 32.265625 -28.5625 32.195312 -28.523438 32.15625 -28.484375 C 31.414062 -28.253906 30.804688 -28.140625 30.328125 -28.140625 C 29.984375 -28.140625 29.59375 -28.222656 29.15625 -28.390625 C 28.8125 -28.691406 28.398438 -28.910156 27.921875 -29.046875 C 27.453125 -29.179688 26.46875 -29.300781 24.96875 -29.40625 C 23.988281 -29.300781 23.125 -29.25 22.375 -29.25 C 22.132812 -28 21.742188 -26.878906 21.203125 -25.890625 C 21.066406 -25.242188 20.878906 -24.664062 20.640625 -24.15625 C 20.398438 -23.476562 20.300781 -23.085938 20.34375 -22.984375 C 20.238281 -22.847656 19.910156 -21.988281 19.359375 -20.40625 C 18.816406 -18.832031 18.3125 -17.296875 17.84375 -15.796875 C 17.5 -14.742188 17.242188 -13.976562 17.078125 -13.5 C 16.898438 -13.164062 16.6875 -12.632812 16.4375 -11.90625 C 16.1875 -11.175781 16.007812 -10.65625 15.90625 -10.34375 L 14.625 -6.828125 C 14.351562 -6.316406 14.019531 -5.507812 13.625 -4.40625 C 13.238281 -3.300781 12.925781 -2.304688 12.6875 -1.421875 L 12.1875 0.359375 C 12.007812 0.972656 11.859375 1.429688 11.734375 1.734375 C 11.617188 2.035156 11.523438 2.203125 11.453125 2.234375 C 11.390625 2.273438 11.222656 2.28125 10.953125 2.25 C 10.679688 2.25 10.382812 2.035156 10.0625 1.609375 C 9.738281 1.179688 9.578125 0.765625 9.578125 0.359375 C 9.578125 -0.390625 9.835938 -1.644531 10.359375 -3.40625 C 10.890625 -5.175781 11.394531 -6.585938 11.875 -7.640625 C 12.007812 -8.253906 12.132812 -8.75 12.25 -9.125 C 12.375 -9.5 12.453125 -9.769531 12.484375 -9.9375 C 12.585938 -10.070312 12.75 -10.4375 12.96875 -11.03125 C 13.1875 -11.625 13.363281 -12.175781 13.5 -12.6875 C 13.601562 -13.300781 14.660156 -16.71875 16.671875 -22.9375 L 17.03125 -24 C 17.332031 -24.507812 17.617188 -25.15625 17.890625 -25.9375 C 18.160156 -26.113281 18.296875 -26.472656 18.296875 -27.015625 C 18.296875 -27.117188 18.351562 -27.253906 18.46875 -27.421875 C 18.59375 -27.585938 18.65625 -27.707031 18.65625 -27.78125 C 18.71875 -27.84375 18.789062 -28 18.875 -28.25 C 18.96875 -28.507812 19.082031 -28.707031 19.21875 -28.84375 L 19.21875 -28.90625 L 18.40625 -28.84375 L 15.90625 -28.59375 L 14.78125 -28.484375 C 12.8125 -28.316406 11.671875 -28.203125 11.359375 -28.140625 C 10.347656 -28.066406 9.628906 -28.113281 9.203125 -28.28125 C 8.773438 -28.457031 8.628906 -28.800781 8.765625 -29.3125 C 8.867188 -29.71875 9.082031 -30.019531 9.40625 -30.21875 C 9.726562 -30.425781 10.226562 -30.582031 10.90625 -30.6875 C 11.207031 -30.75 11.800781 -30.847656 12.6875 -30.984375 L 14.0625 -31.25 L 15.796875 -31.453125 C 17.765625 -31.753906 19.851562 -31.957031 22.0625 -32.0625 C 22.988281 -32.09375 23.765625 -32.132812 24.390625 -32.1875 C 25.015625 -32.238281 25.429688 -32.28125 25.640625 -32.3125 C 26.109375 -32.28125 26.878906 -32.195312 27.953125 -32.0625 C 29.023438 -31.925781 29.800781 -31.769531 30.28125 -31.59375 C 31.019531 -31.425781 31.566406 -31.1875 31.921875 -30.875 C 32.285156 -30.570312 32.550781 -30.132812 32.71875 -29.5625 Z M 32.71875 -29.5625 "/></g></g></g><g fill="#30afff" fill-opacity="1"><g transform="translate(172.510803, 232.244907)"><g/></g></g><g fill="#30afff" fill-opacity="1"><g transform="translate(184.84444, 232.244907)"><g><path d="M 10.046875 2.90625 C 8.953125 2.226562 8.140625 1.632812 7.609375 1.125 C 7.085938 0.613281 6.828125 0.132812 6.828125 -0.3125 C 6.828125 -0.75 7.117188 -1.140625 7.703125 -1.484375 C 7.867188 -1.578125 8.160156 -1.476562 8.578125 -1.1875 C 9.003906 -0.90625 9.425781 -0.5625 9.84375 -0.15625 C 10.71875 0.664062 11.867188 1.078125 13.296875 1.078125 C 13.910156 1.078125 14.726562 0.957031 15.75 0.71875 C 17.144531 0.3125 18.375 -0.28125 19.4375 -1.0625 C 20.507812 -1.851562 21.539062 -2.859375 22.53125 -4.078125 C 23.144531 -4.890625 23.601562 -5.785156 23.90625 -6.765625 C 24.207031 -7.753906 24.359375 -8.691406 24.359375 -9.578125 C 24.359375 -10.671875 24.15625 -11.472656 23.75 -11.984375 C 22.394531 -13.816406 20.457031 -14.734375 17.9375 -14.734375 C 16.851562 -14.734375 15.835938 -14.597656 14.890625 -14.328125 L 11.921875 -13.703125 C 11.859375 -13.671875 11.707031 -13.628906 11.46875 -13.578125 C 11.226562 -13.523438 10.851562 -12.785156 10.34375 -11.359375 C 9.832031 -9.929688 9.171875 -8.066406 8.359375 -5.765625 C 7.640625 -3.691406 7.078125 -2.238281 6.671875 -1.40625 C 6.265625 -0.570312 5.894531 -0.15625 5.5625 -0.15625 C 5.21875 -0.15625 4.804688 -0.53125 4.328125 -1.28125 C 3.953125 -1.882812 3.765625 -2.410156 3.765625 -2.859375 C 3.765625 -3.296875 3.921875 -3.769531 4.234375 -4.28125 C 4.398438 -4.582031 4.539062 -4.882812 4.65625 -5.1875 C 4.78125 -5.5 4.910156 -5.925781 5.046875 -6.46875 C 5.484375 -7.789062 6.765625 -11.085938 8.890625 -16.359375 C 11.015625 -21.628906 12.671875 -25.601562 13.859375 -28.28125 C 14.710938 -30.21875 14.96875 -31.238281 14.625 -31.34375 C 14.625 -31.445312 14.570312 -31.597656 14.46875 -31.796875 C 14.375 -32.003906 14.34375 -32.160156 14.375 -32.265625 C 14.375 -32.460938 14.847656 -32.765625 15.796875 -33.171875 C 16.753906 -33.585938 17.453125 -33.757812 17.890625 -33.6875 L 18.203125 -33.6875 C 18.640625 -33.6875 18.859375 -33.769531 18.859375 -33.9375 C 18.921875 -33.9375 19.234375 -33.972656 19.796875 -34.046875 C 20.359375 -34.117188 20.960938 -34.117188 21.609375 -34.046875 C 23.890625 -33.835938 25.65625 -33.171875 26.90625 -32.046875 C 28.164062 -30.929688 28.78125 -29.441406 28.75 -27.578125 C 28.71875 -26.722656 28.125 -25.472656 26.96875 -23.828125 C 25.8125 -22.179688 24.65625 -20.832031 23.5 -19.78125 C 22.957031 -19.300781 22.335938 -18.796875 21.640625 -18.265625 C 20.941406 -17.742188 20.488281 -17.414062 20.28125 -17.28125 L 21.5625 -16.8125 C 23.226562 -16.207031 24.546875 -15.453125 25.515625 -14.546875 C 26.484375 -13.648438 27.148438 -12.453125 27.515625 -10.953125 C 27.585938 -10.617188 27.625 -10.316406 27.625 -10.046875 C 27.625 -9.296875 27.492188 -8.441406 27.234375 -7.484375 C 26.984375 -6.535156 26.707031 -5.707031 26.40625 -5 C 26.195312 -4.789062 26.023438 -4.566406 25.890625 -4.328125 C 25.753906 -4.085938 25.671875 -3.9375 25.640625 -3.875 C 25.609375 -3.738281 25.300781 -3.21875 24.71875 -2.3125 C 24.144531 -1.414062 23.632812 -0.695312 23.1875 -0.15625 C 21.488281 1.300781 19.976562 2.269531 18.65625 2.75 C 17.226562 3.394531 15.613281 3.71875 13.8125 3.71875 C 12.144531 3.71875 10.890625 3.445312 10.046875 2.90625 Z M 12.53125 -16.71875 C 12.90625 -16.78125 13.660156 -16.921875 14.796875 -17.140625 C 15.941406 -17.367188 16.734375 -17.566406 17.171875 -17.734375 C 17.242188 -17.765625 17.457031 -17.875 17.8125 -18.0625 C 18.164062 -18.25 18.53125 -18.53125 18.90625 -18.90625 C 19.71875 -19.65625 20.71875 -20.769531 21.90625 -22.25 C 23.101562 -23.726562 23.972656 -24.976562 24.515625 -26 C 25.367188 -27.382812 25.796875 -28.398438 25.796875 -29.046875 C 25.796875 -29.492188 25.609375 -29.90625 25.234375 -30.28125 C 24.785156 -30.820312 23.726562 -31.09375 22.0625 -31.09375 C 20.976562 -31.09375 20.046875 -30.988281 19.265625 -30.78125 C 18.785156 -30.644531 18.4375 -30.484375 18.21875 -30.296875 C 18 -30.109375 17.890625 -29.828125 17.890625 -29.453125 C 17.890625 -28.953125 17.617188 -28.425781 17.078125 -27.875 C 17.046875 -27.675781 16.96875 -27.484375 16.84375 -27.296875 C 16.726562 -27.109375 16.648438 -27 16.609375 -26.96875 C 16.609375 -26.863281 16.40625 -26.351562 16 -25.4375 C 15.457031 -24.382812 14.945312 -23.191406 14.46875 -21.859375 C 13.175781 -18.804688 12.53125 -17.09375 12.53125 -16.71875 Z M 12.53125 -16.71875 "/></g></g></g><g fill="#30afff" fill-opacity="1"><g transform="translate(210.938737, 232.244907)"><g><path d="M 11.0625 1.9375 C 9.738281 1.59375 8.53125 0.921875 7.4375 -0.078125 C 6.351562 -1.078125 5.660156 -2.140625 5.359375 -3.265625 C 5.210938 -4.285156 5.140625 -5.421875 5.140625 -6.671875 C 5.140625 -7.492188 5.191406 -7.953125 5.296875 -8.046875 C 5.398438 -8.117188 5.453125 -8.328125 5.453125 -8.671875 C 5.421875 -8.867188 5.539062 -9.425781 5.8125 -10.34375 C 6.050781 -10.957031 6.117188 -11.484375 6.015625 -11.921875 C 6.046875 -11.992188 6.101562 -12.113281 6.1875 -12.28125 C 6.269531 -12.445312 6.382812 -12.617188 6.53125 -12.796875 C 6.695312 -12.960938 6.785156 -13.140625 6.796875 -13.328125 C 6.816406 -13.515625 6.8125 -13.640625 6.78125 -13.703125 L 6.78125 -13.765625 C 6.78125 -13.898438 6.820312 -14.078125 6.90625 -14.296875 C 6.988281 -14.515625 7.082031 -14.691406 7.1875 -14.828125 C 7.289062 -14.929688 7.382812 -15.066406 7.46875 -15.234375 C 7.550781 -15.410156 7.609375 -15.53125 7.640625 -15.59375 C 7.679688 -15.832031 7.945312 -16.585938 8.4375 -17.859375 C 8.925781 -19.140625 9.253906 -19.914062 9.421875 -20.1875 L 9.421875 -20.28125 C 9.566406 -20.625 9.753906 -20.984375 9.984375 -21.359375 C 10.054688 -21.828125 10.296875 -22.488281 10.703125 -23.34375 C 11.484375 -25.070312 12.578125 -27.066406 13.984375 -29.328125 C 15.398438 -31.585938 16.515625 -33.109375 17.328125 -33.890625 C 17.671875 -34.265625 17.953125 -34.523438 18.171875 -34.671875 C 18.390625 -34.828125 18.601562 -34.90625 18.8125 -34.90625 C 19.113281 -34.90625 19.503906 -34.671875 19.984375 -34.203125 C 20.390625 -33.796875 20.59375 -33.25 20.59375 -32.5625 C 20.59375 -32.195312 20.523438 -32.015625 20.390625 -32.015625 C 19.941406 -31.703125 19.054688 -30.59375 17.734375 -28.6875 C 16.410156 -26.789062 15.34375 -25.09375 14.53125 -23.59375 C 14.082031 -22.644531 13.695312 -21.847656 13.375 -21.203125 C 13.050781 -20.554688 12.835938 -20.128906 12.734375 -19.921875 L 12.53125 -19.46875 C 11.71875 -17.738281 10.957031 -15.867188 10.25 -13.859375 C 10.070312 -13.660156 9.957031 -13.445312 9.90625 -13.21875 C 9.863281 -13 9.84375 -12.859375 9.84375 -12.796875 C 9.769531 -12.828125 9.707031 -12.734375 9.65625 -12.515625 C 9.601562 -12.296875 9.546875 -12.097656 9.484375 -11.921875 C 9.242188 -11.722656 9.125 -11.234375 9.125 -10.453125 C 8.75 -9.535156 8.441406 -8.378906 8.203125 -6.984375 C 7.960938 -5.585938 7.878906 -4.550781 7.953125 -3.875 C 8.085938 -2.75 9.019531 -1.847656 10.75 -1.171875 C 11.53125 -0.867188 12.109375 -0.71875 12.484375 -0.71875 C 12.722656 -0.675781 13.085938 -0.6875 13.578125 -0.75 C 14.078125 -0.820312 14.648438 -0.910156 15.296875 -1.015625 L 15.234375 -1.015625 C 15.410156 -1.054688 16.347656 -1.257812 18.046875 -1.625 C 18.859375 -1.726562 19.535156 -1.882812 20.078125 -2.09375 C 21.097656 -2.394531 21.757812 -2.546875 22.0625 -2.546875 C 22.269531 -2.546875 22.410156 -2.515625 22.484375 -2.453125 C 22.753906 -2.242188 22.890625 -1.988281 22.890625 -1.6875 L 22.78125 -1.21875 C 22.675781 -0.945312 22.128906 -0.539062 21.140625 0 C 20.160156 0.539062 19.210938 0.945312 18.296875 1.21875 C 17.585938 1.53125 16.765625 1.769531 15.828125 1.9375 C 14.890625 2.101562 13.976562 2.1875 13.09375 2.1875 C 12.175781 2.1875 11.5 2.101562 11.0625 1.9375 Z M 11.0625 1.9375 "/></g></g></g><g fill="#30afff" fill-opacity="1"><g transform="translate(232.650018, 232.244907)"><g><path d="M 8.921875 1.015625 C 7.734375 0.0976562 6.953125 -0.617188 6.578125 -1.140625 C 6.203125 -1.671875 5.976562 -2.328125 5.90625 -3.109375 C 5.875 -3.273438 5.859375 -3.582031 5.859375 -4.03125 C 5.859375 -4.976562 5.941406 -6.164062 6.109375 -7.59375 C 6.285156 -9.019531 6.457031 -10.160156 6.625 -11.015625 C 6.757812 -11.148438 6.832031 -11.351562 6.84375 -11.625 C 6.863281 -11.894531 6.859375 -12.0625 6.828125 -12.125 C 6.828125 -12.226562 6.910156 -12.570312 7.078125 -13.15625 C 7.492188 -14.40625 7.785156 -15.457031 7.953125 -16.3125 C 8.867188 -19.09375 9.769531 -21.316406 10.65625 -22.984375 C 11.539062 -24.648438 12.523438 -26.210938 13.609375 -27.671875 C 15.066406 -29.171875 16.210938 -30.269531 17.046875 -30.96875 C 17.878906 -31.664062 18.804688 -32.25 19.828125 -32.71875 C 21.148438 -33.5 22.101562 -33.890625 22.6875 -33.890625 C 22.78125 -33.890625 22.929688 -33.859375 23.140625 -33.796875 C 25.046875 -33.390625 26.472656 -32.613281 27.421875 -31.46875 C 28.367188 -30.332031 29.066406 -28.578125 29.515625 -26.203125 C 29.816406 -24.128906 29.96875 -22.566406 29.96875 -21.515625 C 29.96875 -19.804688 29.660156 -18.085938 29.046875 -16.359375 C 28.441406 -14.628906 27.335938 -12.457031 25.734375 -9.84375 C 23.898438 -6.238281 21.734375 -3.347656 19.234375 -1.171875 C 16.742188 1.003906 14.394531 2.09375 12.1875 2.09375 C 10.988281 2.09375 9.898438 1.734375 8.921875 1.015625 Z M 12.1875 -0.453125 C 13.34375 -0.585938 14.4375 -1.035156 15.46875 -1.796875 C 16.507812 -2.566406 17.789062 -3.835938 19.3125 -5.609375 C 20.644531 -7.140625 21.585938 -8.296875 22.140625 -9.078125 C 22.703125 -9.859375 23.203125 -10.789062 23.640625 -11.875 C 24.085938 -12.957031 24.632812 -14.625 25.28125 -16.875 C 25.65625 -18.300781 25.898438 -19.410156 26.015625 -20.203125 C 26.140625 -21.003906 26.203125 -21.96875 26.203125 -23.09375 L 26.140625 -26.40625 C 26.109375 -26.976562 25.988281 -27.578125 25.78125 -28.203125 C 25.582031 -28.835938 25.347656 -29.304688 25.078125 -29.609375 C 24.566406 -30.191406 23.90625 -30.484375 23.09375 -30.484375 C 22.582031 -30.484375 22.085938 -30.363281 21.609375 -30.125 C 20.960938 -29.851562 20.007812 -29.0625 18.75 -27.75 C 17.5 -26.445312 16.367188 -25.101562 15.359375 -23.71875 C 14.359375 -22.34375 13.859375 -21.453125 13.859375 -21.046875 C 13.859375 -21.015625 13.84375 -20.910156 13.8125 -20.734375 C 13.78125 -20.566406 13.710938 -20.414062 13.609375 -20.28125 C 13.023438 -19.675781 12.375 -18.4375 11.65625 -16.5625 C 10.945312 -14.695312 10.320312 -12.675781 9.78125 -10.5 C 9.238281 -8.320312 8.9375 -6.503906 8.875 -5.046875 L 8.765625 -3.3125 C 8.765625 -3.007812 8.789062 -2.769531 8.84375 -2.59375 C 8.894531 -2.425781 9.003906 -2.234375 9.171875 -2.015625 C 9.335938 -1.796875 9.492188 -1.566406 9.640625 -1.328125 C 9.804688 -1.054688 10.078125 -0.832031 10.453125 -0.65625 C 10.828125 -0.488281 11.21875 -0.40625 11.625 -0.40625 C 11.863281 -0.40625 12.050781 -0.421875 12.1875 -0.453125 Z M 12.1875 -0.453125 "/></g></g></g><g fill="#30afff" fill-opacity="1"><g transform="translate(257.92888, 232.244907)"><g><path d="M 9.28125 1.578125 C 8.363281 1.003906 7.640625 0.191406 7.109375 -0.859375 C 6.578125 -1.921875 6.347656 -3.007812 6.421875 -4.125 C 6.390625 -8.132812 7.085938 -12.363281 8.515625 -16.8125 C 9.117188 -18.613281 9.863281 -20.507812 10.75 -22.5 C 11.632812 -24.488281 12.382812 -26.007812 13 -27.0625 C 13.945312 -28.625 15 -30 16.15625 -31.1875 C 17.3125 -32.382812 18.242188 -33.1875 18.953125 -33.59375 C 19.398438 -33.820312 20.003906 -34.039062 20.765625 -34.25 C 21.535156 -34.457031 22.34375 -34.5625 23.1875 -34.5625 C 23.863281 -34.5625 24.492188 -34.492188 25.078125 -34.359375 C 25.890625 -34.148438 26.6875 -33.867188 27.46875 -33.515625 C 28.25 -33.160156 28.773438 -32.863281 29.046875 -32.625 C 29.179688 -32.414062 29.34375 -32.175781 29.53125 -31.90625 C 29.71875 -31.632812 29.863281 -31.394531 29.96875 -31.1875 C 30.070312 -30.988281 30.125 -30.769531 30.125 -30.53125 C 30.15625 -30.1875 30.007812 -29.773438 29.6875 -29.296875 C 29.363281 -28.828125 29.035156 -28.59375 28.703125 -28.59375 C 28.492188 -28.59375 28.285156 -28.710938 28.078125 -28.953125 C 27.742188 -29.460938 27.40625 -29.84375 27.0625 -30.09375 C 26.71875 -30.351562 26.359375 -30.566406 25.984375 -30.734375 C 25.617188 -30.898438 25.347656 -31.035156 25.171875 -31.140625 C 24.734375 -31.410156 24.125 -31.546875 23.34375 -31.546875 C 22.726562 -31.546875 22.109375 -31.453125 21.484375 -31.265625 C 20.859375 -31.078125 20.320312 -30.796875 19.875 -30.421875 C 19.257812 -29.878906 18.507812 -29.070312 17.625 -28 C 16.75 -26.9375 16.070312 -25.945312 15.59375 -25.03125 C 13.550781 -21.457031 12.109375 -18.09375 11.265625 -14.9375 C 10.992188 -13.945312 10.6875 -12.703125 10.34375 -11.203125 C 10.007812 -9.710938 9.789062 -8.59375 9.6875 -7.84375 C 9.476562 -6.59375 9.375 -5.457031 9.375 -4.4375 C 9.375 -3.175781 9.585938 -2.210938 10.015625 -1.546875 C 10.441406 -0.890625 11.144531 -0.5625 12.125 -0.5625 C 12.8125 -0.5625 13.644531 -0.734375 14.625 -1.078125 C 15.75 -1.210938 17.023438 -1.863281 18.453125 -3.03125 C 19.878906 -4.207031 21.066406 -5.539062 22.015625 -7.03125 C 23.546875 -9.882812 24.3125 -11.804688 24.3125 -12.796875 C 24.3125 -13.472656 23.988281 -13.8125 23.34375 -13.8125 C 22.664062 -13.882812 21.816406 -13.921875 20.796875 -13.921875 C 20.117188 -13.921875 19.59375 -13.9375 19.21875 -13.96875 C 18.84375 -14 18.503906 -14.097656 18.203125 -14.265625 C 17.960938 -14.640625 17.84375 -14.960938 17.84375 -15.234375 C 17.84375 -15.640625 18.0625 -16.066406 18.5 -16.515625 C 18.976562 -16.710938 19.914062 -16.8125 21.3125 -16.8125 C 23.28125 -16.8125 24.820312 -16.539062 25.9375 -16 C 26.988281 -15.488281 27.515625 -14.453125 27.515625 -12.890625 C 27.515625 -12.148438 27.445312 -11.488281 27.3125 -10.90625 C 27.007812 -9.582031 25.972656 -7.59375 24.203125 -4.9375 C 23.421875 -3.851562 22.257812 -2.671875 20.71875 -1.390625 C 19.175781 -0.117188 17.925781 0.703125 16.96875 1.078125 C 15.101562 1.921875 13.421875 2.34375 11.921875 2.34375 C 10.867188 2.34375 9.988281 2.085938 9.28125 1.578125 Z M 9.28125 1.578125 "/></g></g></g><g fill="#ff7948" fill-opacity="1"><g transform="translate(82.183424, 262.171611)"><g><path d="M 6.15625 -8.40625 C 6.257812 -8.40625 6.3125 -8.351562 6.3125 -8.25 L 6.3125 -7.796875 C 6.3125 -7.691406 6.257812 -7.640625 6.15625 -7.640625 L 3.859375 -7.640625 C 3.816406 -7.640625 3.796875 -7.617188 3.796875 -7.578125 L 3.796875 -0.15625 C 3.796875 -0.0507812 3.742188 0 3.640625 0 L 3.09375 0 C 2.988281 0 2.9375 -0.0507812 2.9375 -0.15625 L 2.9375 -7.578125 C 2.9375 -7.617188 2.914062 -7.640625 2.875 -7.640625 L 0.671875 -7.640625 C 0.566406 -7.640625 0.515625 -7.691406 0.515625 -7.796875 L 0.515625 -8.25 C 0.515625 -8.351562 0.566406 -8.40625 0.671875 -8.40625 Z M 6.15625 -8.40625 "/></g></g></g><g fill="#ff7948" fill-opacity="1"><g transform="translate(95.970948, 262.171611)"><g><path d="M 6.0625 0 C 5.96875 0 5.90625 -0.0390625 5.875 -0.125 L 4.109375 -3.8125 C 4.097656 -3.84375 4.078125 -3.859375 4.046875 -3.859375 L 2.046875 -3.859375 C 2.003906 -3.859375 1.984375 -3.835938 1.984375 -3.796875 L 1.984375 -0.15625 C 1.984375 -0.0507812 1.929688 0 1.828125 0 L 1.28125 0 C 1.175781 0 1.125 -0.0507812 1.125 -0.15625 L 1.125 -8.25 C 1.125 -8.351562 1.175781 -8.40625 1.28125 -8.40625 L 4.359375 -8.40625 C 5.046875 -8.40625 5.597656 -8.191406 6.015625 -7.765625 C 6.441406 -7.347656 6.65625 -6.796875 6.65625 -6.109375 C 6.65625 -5.546875 6.503906 -5.070312 6.203125 -4.6875 C 5.910156 -4.300781 5.503906 -4.046875 4.984375 -3.921875 C 4.941406 -3.910156 4.925781 -3.890625 4.9375 -3.859375 L 6.734375 -0.1875 C 6.742188 -0.144531 6.75 -0.117188 6.75 -0.109375 C 6.75 -0.0351562 6.703125 0 6.609375 0 Z M 2.046875 -7.671875 C 2.003906 -7.671875 1.984375 -7.648438 1.984375 -7.609375 L 1.984375 -4.609375 C 1.984375 -4.566406 2.003906 -4.546875 2.046875 -4.546875 L 4.265625 -4.546875 C 4.722656 -4.546875 5.09375 -4.6875 5.375 -4.96875 C 5.664062 -5.257812 5.8125 -5.632812 5.8125 -6.09375 C 5.8125 -6.5625 5.664062 -6.941406 5.375 -7.234375 C 5.09375 -7.523438 4.722656 -7.671875 4.265625 -7.671875 Z M 2.046875 -7.671875 "/></g></g></g><g fill="#ff7948" fill-opacity="1"><g transform="translate(110.274437, 262.171611)"><g><path d="M 6.125 0 C 6.039062 0 5.988281 -0.0390625 5.96875 -0.125 L 5.484375 -1.59375 C 5.460938 -1.625 5.441406 -1.640625 5.421875 -1.640625 L 1.84375 -1.640625 C 1.820312 -1.640625 1.800781 -1.625 1.78125 -1.59375 L 1.3125 -0.125 C 1.289062 -0.0390625 1.238281 0 1.15625 0 L 0.578125 0 C 0.515625 0 0.472656 -0.015625 0.453125 -0.046875 C 0.429688 -0.078125 0.425781 -0.125 0.4375 -0.1875 L 3.078125 -8.265625 C 3.109375 -8.359375 3.164062 -8.40625 3.25 -8.40625 L 4.015625 -8.40625 C 4.109375 -8.40625 4.164062 -8.359375 4.1875 -8.265625 L 6.84375 -0.1875 C 6.851562 -0.164062 6.859375 -0.144531 6.859375 -0.125 C 6.859375 -0.09375 6.84375 -0.0625 6.8125 -0.03125 C 6.78125 -0.0078125 6.742188 0 6.703125 0 Z M 2.046875 -2.40625 C 2.046875 -2.363281 2.0625 -2.34375 2.09375 -2.34375 L 5.1875 -2.34375 C 5.226562 -2.34375 5.242188 -2.363281 5.234375 -2.40625 L 3.671875 -7.3125 C 3.660156 -7.351562 3.644531 -7.375 3.625 -7.375 C 3.613281 -7.375 3.601562 -7.351562 3.59375 -7.3125 Z M 2.046875 -2.40625 "/></g></g></g><g fill="#ff7948" fill-opacity="1"><g transform="translate(124.517925, 262.171611)"><g><path d="M 3.21875 0 C 3.125 0 3.066406 -0.0390625 3.046875 -0.125 L 0.4375 -8.21875 C 0.4375 -8.238281 0.4375 -8.257812 0.4375 -8.28125 C 0.4375 -8.3125 0.445312 -8.335938 0.46875 -8.359375 C 0.5 -8.390625 0.535156 -8.40625 0.578125 -8.40625 L 1.15625 -8.40625 C 1.238281 -8.40625 1.289062 -8.359375 1.3125 -8.265625 L 3.5 -1.296875 C 3.507812 -1.265625 3.519531 -1.25 3.53125 -1.25 C 3.550781 -1.25 3.566406 -1.265625 3.578125 -1.296875 L 5.765625 -8.265625 C 5.785156 -8.359375 5.835938 -8.40625 5.921875 -8.40625 L 6.484375 -8.40625 C 6.546875 -8.40625 6.585938 -8.382812 6.609375 -8.34375 C 6.628906 -8.3125 6.632812 -8.269531 6.625 -8.21875 L 4 -0.125 C 3.96875 -0.0390625 3.910156 0 3.828125 0 Z M 3.21875 0 "/></g></g></g><g fill="#ff7948" fill-opacity="1"><g transform="translate(138.545427, 262.171611)"><g><path d="M 6.5625 -7.8125 C 6.5625 -7.707031 6.507812 -7.65625 6.40625 -7.65625 L 2.046875 -7.65625 C 2.003906 -7.65625 1.984375 -7.632812 1.984375 -7.59375 L 1.984375 -4.65625 C 1.984375 -4.613281 2.003906 -4.59375 2.046875 -4.59375 L 5.09375 -4.59375 C 5.195312 -4.59375 5.25 -4.539062 5.25 -4.4375 L 5.25 -4.015625 C 5.25 -3.910156 5.195312 -3.859375 5.09375 -3.859375 L 2.046875 -3.859375 C 2.003906 -3.859375 1.984375 -3.835938 1.984375 -3.796875 L 1.984375 -0.796875 C 1.984375 -0.765625 2.003906 -0.75 2.046875 -0.75 L 6.40625 -0.75 C 6.507812 -0.75 6.5625 -0.695312 6.5625 -0.59375 L 6.5625 -0.15625 C 6.5625 -0.0507812 6.507812 0 6.40625 0 L 1.28125 0 C 1.175781 0 1.125 -0.0507812 1.125 -0.15625 L 1.125 -8.25 C 1.125 -8.351562 1.175781 -8.40625 1.28125 -8.40625 L 6.40625 -8.40625 C 6.507812 -8.40625 6.5625 -8.351562 6.5625 -8.25 Z M 6.5625 -7.8125 "/></g></g></g><g fill="#ff7948" fill-opacity="1"><g transform="translate(152.764916, 262.171611)"><g><path d="M 1.28125 0 C 1.175781 0 1.125 -0.0507812 1.125 -0.15625 L 1.125 -8.25 C 1.125 -8.351562 1.175781 -8.40625 1.28125 -8.40625 L 1.828125 -8.40625 C 1.929688 -8.40625 1.984375 -8.351562 1.984375 -8.25 L 1.984375 -0.796875 C 1.984375 -0.765625 2.003906 -0.75 2.046875 -0.75 L 6.234375 -0.75 C 6.335938 -0.75 6.390625 -0.695312 6.390625 -0.59375 L 6.390625 -0.15625 C 6.390625 -0.0507812 6.335938 0 6.234375 0 Z M 1.28125 0 "/></g></g></g><g fill="#ff7948" fill-opacity="1"><g transform="translate(166.540437, 262.171611)"><g/></g></g><g fill="#ff7948" fill-opacity="1"><g transform="translate(175.900266, 262.171611)"><g><path d="M 1.28125 0 C 1.175781 0 1.125 -0.0507812 1.125 -0.15625 L 1.125 -8.25 C 1.125 -8.351562 1.175781 -8.40625 1.28125 -8.40625 L 1.828125 -8.40625 C 1.929688 -8.40625 1.984375 -8.351562 1.984375 -8.25 L 1.984375 -0.15625 C 1.984375 -0.0507812 1.929688 0 1.828125 0 Z M 1.28125 0 "/></g></g></g><g fill="#ff7948" fill-opacity="1"><g transform="translate(185.968047, 262.171611)"><g><path d="M 3.578125 0.09375 C 2.992188 0.09375 2.484375 0.00390625 2.046875 -0.171875 C 1.609375 -0.359375 1.269531 -0.617188 1.03125 -0.953125 C 0.800781 -1.296875 0.6875 -1.691406 0.6875 -2.140625 L 0.6875 -2.484375 C 0.6875 -2.585938 0.738281 -2.640625 0.84375 -2.640625 L 1.359375 -2.640625 C 1.460938 -2.640625 1.515625 -2.585938 1.515625 -2.484375 L 1.515625 -2.203125 C 1.515625 -1.742188 1.703125 -1.367188 2.078125 -1.078125 C 2.460938 -0.785156 2.984375 -0.640625 3.640625 -0.640625 C 4.253906 -0.640625 4.71875 -0.769531 5.03125 -1.03125 C 5.351562 -1.289062 5.515625 -1.640625 5.515625 -2.078125 C 5.515625 -2.359375 5.441406 -2.597656 5.296875 -2.796875 C 5.148438 -2.992188 4.921875 -3.179688 4.609375 -3.359375 C 4.304688 -3.535156 3.875 -3.738281 3.3125 -3.96875 C 2.707031 -4.207031 2.238281 -4.414062 1.90625 -4.59375 C 1.582031 -4.78125 1.316406 -5.015625 1.109375 -5.296875 C 0.898438 -5.578125 0.796875 -5.9375 0.796875 -6.375 C 0.796875 -7.039062 1.03125 -7.5625 1.5 -7.9375 C 1.96875 -8.3125 2.613281 -8.5 3.4375 -8.5 C 4.320312 -8.5 5.019531 -8.289062 5.53125 -7.875 C 6.039062 -7.457031 6.296875 -6.90625 6.296875 -6.21875 L 6.296875 -5.984375 C 6.296875 -5.878906 6.242188 -5.828125 6.140625 -5.828125 L 5.609375 -5.828125 C 5.503906 -5.828125 5.453125 -5.878906 5.453125 -5.984375 L 5.453125 -6.171875 C 5.453125 -6.628906 5.269531 -7.003906 4.90625 -7.296875 C 4.550781 -7.597656 4.046875 -7.75 3.390625 -7.75 C 2.828125 -7.75 2.394531 -7.632812 2.09375 -7.40625 C 1.789062 -7.175781 1.640625 -6.835938 1.640625 -6.390625 C 1.640625 -6.109375 1.710938 -5.875 1.859375 -5.6875 C 2.015625 -5.5 2.226562 -5.332031 2.5 -5.1875 C 2.78125 -5.050781 3.203125 -4.867188 3.765625 -4.640625 C 4.347656 -4.398438 4.816406 -4.175781 5.171875 -3.96875 C 5.535156 -3.757812 5.828125 -3.503906 6.046875 -3.203125 C 6.265625 -2.910156 6.375 -2.546875 6.375 -2.109375 C 6.375 -1.441406 6.125 -0.90625 5.625 -0.5 C 5.132812 -0.101562 4.453125 0.09375 3.578125 0.09375 Z M 3.578125 0.09375 "/></g></g></g><g fill="#ff7948" fill-opacity="1"><g transform="translate(199.959558, 262.171611)"><g/></g></g><g fill="#ff7948" fill-opacity="1"><g transform="translate(209.319394, 262.171611)"><g><path d="M 1.28125 0 C 1.175781 0 1.125 -0.0507812 1.125 -0.15625 L 1.125 -8.25 C 1.125 -8.351562 1.175781 -8.40625 1.28125 -8.40625 L 1.84375 -8.40625 C 1.914062 -8.40625 1.976562 -8.367188 2.03125 -8.296875 L 4.21875 -4.828125 C 4.25 -4.773438 4.273438 -4.773438 4.296875 -4.828125 L 6.5 -8.296875 C 6.550781 -8.367188 6.613281 -8.40625 6.6875 -8.40625 L 7.25 -8.40625 C 7.351562 -8.40625 7.40625 -8.351562 7.40625 -8.25 L 7.40625 -0.15625 C 7.40625 -0.0507812 7.351562 0 7.25 0 L 6.703125 0 C 6.597656 0 6.546875 -0.0507812 6.546875 -0.15625 L 6.546875 -6.78125 C 6.546875 -6.8125 6.535156 -6.828125 6.515625 -6.828125 C 6.503906 -6.828125 6.492188 -6.816406 6.484375 -6.796875 L 4.578125 -3.796875 C 4.535156 -3.722656 4.476562 -3.6875 4.40625 -3.6875 L 4.125 -3.6875 C 4.050781 -3.6875 3.992188 -3.722656 3.953125 -3.796875 L 2.046875 -6.796875 C 2.035156 -6.816406 2.019531 -6.828125 2 -6.828125 C 1.988281 -6.828125 1.984375 -6.8125 1.984375 -6.78125 L 1.984375 -0.15625 C 1.984375 -0.0507812 1.929688 0 1.828125 0 Z M 1.28125 0 "/></g></g></g><g fill="#ff7948" fill-opacity="1"><g transform="translate(224.810792, 262.171611)"><g><path d="M 3.125 -0.015625 C 3.019531 -0.015625 2.96875 -0.0664062 2.96875 -0.171875 L 2.96875 -3.6875 C 2.96875 -3.695312 2.960938 -3.71875 2.953125 -3.75 L 0.484375 -8.203125 C 0.472656 -8.253906 0.46875 -8.285156 0.46875 -8.296875 C 0.46875 -8.328125 0.476562 -8.351562 0.5 -8.375 C 0.53125 -8.394531 0.5625 -8.40625 0.59375 -8.40625 L 1.171875 -8.40625 C 1.265625 -8.40625 1.328125 -8.367188 1.359375 -8.296875 L 3.359375 -4.671875 C 3.378906 -4.640625 3.40625 -4.640625 3.4375 -4.671875 L 5.453125 -8.296875 C 5.492188 -8.367188 5.550781 -8.40625 5.625 -8.40625 L 6.203125 -8.40625 C 6.265625 -8.40625 6.304688 -8.382812 6.328125 -8.34375 C 6.347656 -8.3125 6.34375 -8.265625 6.3125 -8.203125 L 3.859375 -3.75 C 3.835938 -3.71875 3.828125 -3.695312 3.828125 -3.6875 L 3.828125 -0.171875 C 3.828125 -0.0664062 3.773438 -0.015625 3.671875 -0.015625 Z M 3.125 -0.015625 "/></g></g></g><g fill="#ff7948" fill-opacity="1"><g transform="translate(238.574311, 262.171611)"><g/></g></g><g fill="#ff7948" fill-opacity="1"><g transform="translate(247.934147, 262.171611)"><g><path d="M 1.28125 0 C 1.175781 0 1.125 -0.0507812 1.125 -0.15625 L 1.125 -8.25 C 1.125 -8.351562 1.175781 -8.40625 1.28125 -8.40625 L 1.828125 -8.40625 C 1.929688 -8.40625 1.984375 -8.351562 1.984375 -8.25 L 1.984375 -0.796875 C 1.984375 -0.765625 2.003906 -0.75 2.046875 -0.75 L 6.234375 -0.75 C 6.335938 -0.75 6.390625 -0.695312 6.390625 -0.59375 L 6.390625 -0.15625 C 6.390625 -0.0507812 6.335938 0 6.234375 0 Z M 1.28125 0 "/></g></g></g><g fill="#ff7948" fill-opacity="1"><g transform="translate(261.709674, 262.171611)"><g><path d="M 1.28125 0 C 1.175781 0 1.125 -0.0507812 1.125 -0.15625 L 1.125 -8.25 C 1.125 -8.351562 1.175781 -8.40625 1.28125 -8.40625 L 1.828125 -8.40625 C 1.929688 -8.40625 1.984375 -8.351562 1.984375 -8.25 L 1.984375 -0.15625 C 1.984375 -0.0507812 1.929688 0 1.828125 0 Z M 1.28125 0 "/></g></g></g><g fill="#ff7948" fill-opacity="1"><g transform="translate(271.777455, 262.171611)"><g><path d="M 6.546875 -7.8125 C 6.546875 -7.707031 6.492188 -7.65625 6.390625 -7.65625 L 2.046875 -7.65625 C 2.003906 -7.65625 1.984375 -7.632812 1.984375 -7.59375 L 1.984375 -4.65625 C 1.984375 -4.613281 2.003906 -4.59375 2.046875 -4.59375 L 5.078125 -4.59375 C 5.179688 -4.59375 5.234375 -4.539062 5.234375 -4.4375 L 5.234375 -4.015625 C 5.234375 -3.910156 5.179688 -3.859375 5.078125 -3.859375 L 2.046875 -3.859375 C 2.003906 -3.859375 1.984375 -3.835938 1.984375 -3.796875 L 1.984375 -0.15625 C 1.984375 -0.0507812 1.929688 0 1.828125 0 L 1.28125 0 C 1.175781 0 1.125 -0.0507812 1.125 -0.15625 L 1.125 -8.25 C 1.125 -8.351562 1.175781 -8.40625 1.28125 -8.40625 L 6.390625 -8.40625 C 6.492188 -8.40625 6.546875 -8.351562 6.546875 -8.25 Z M 6.546875 -7.8125 "/></g></g></g><g fill="#ff7948" fill-opacity="1"><g transform="translate(285.552982, 262.171611)"><g><path d="M 6.5625 -7.8125 C 6.5625 -7.707031 6.507812 -7.65625 6.40625 -7.65625 L 2.046875 -7.65625 C 2.003906 -7.65625 1.984375 -7.632812 1.984375 -7.59375 L 1.984375 -4.65625 C 1.984375 -4.613281 2.003906 -4.59375 2.046875 -4.59375 L 5.09375 -4.59375 C 5.195312 -4.59375 5.25 -4.539062 5.25 -4.4375 L 5.25 -4.015625 C 5.25 -3.910156 5.195312 -3.859375 5.09375 -3.859375 L 2.046875 -3.859375 C 2.003906 -3.859375 1.984375 -3.835938 1.984375 -3.796875 L 1.984375 -0.796875 C 1.984375 -0.765625 2.003906 -0.75 2.046875 -0.75 L 6.40625 -0.75 C 6.507812 -0.75 6.5625 -0.695312 6.5625 -0.59375 L 6.5625 -0.15625 C 6.5625 -0.0507812 6.507812 0 6.40625 0 L 1.28125 0 C 1.175781 0 1.125 -0.0507812 1.125 -0.15625 L 1.125 -8.25 C 1.125 -8.351562 1.175781 -8.40625 1.28125 -8.40625 L 6.40625 -8.40625 C 6.507812 -8.40625 6.5625 -8.351562 6.5625 -8.25 Z M 6.5625 -7.8125 "/></g></g></g><path fill="#ff7948" d="M 220.5625 151.996094 C 220.5625 168.613281 205.222656 182.042969 186.246094 182.042969 C 167.265625 182.042969 149.789062 168.613281 149.789062 151.996094 C 149.789062 135.378906 162.488281 112.253906 181.464844 112.253906 C 221.609375 112.300781 220.5625 135.378906 220.5625 151.996094 Z M 220.5625 151.996094 " fill-opacity="1" fill-rule="nonzero"/><path fill="#f9b916" d="M 165.355469 130.738281 C 164.171875 134.96875 159.257812 137.292969 154.386719 135.878906 C 149.5625 134.515625 146.101562 129.78125 147.285156 125.546875 C 148.46875 121.3125 153.429688 116.351562 158.253906 117.714844 C 168.496094 120.628906 166.585938 126.503906 165.355469 130.738281 Z M 165.355469 130.738281 " fill-opacity="1" fill-rule="nonzero"/><path fill="#f9b916" d="M 261.203125 160.007812 L 262.023438 158.914062 L 259.792969 157.230469 L 260.292969 156.820312 L 263.34375 157.730469 C 263.34375 157.730469 264.117188 156.820312 264.9375 156.046875 C 265.757812 155.320312 266.757812 154.589844 266.757812 154.589844 L 268.898438 152.953125 L 267.210938 151.675781 L 266.027344 152.542969 C 266.027344 152.542969 265.621094 152.722656 265.253906 152.132812 C 264.847656 151.585938 265.210938 151.269531 265.210938 151.269531 L 265.894531 150.765625 L 261.25 148.035156 L 263.253906 147.078125 L 272.855469 150.265625 C 272.855469 150.265625 275.90625 147.898438 276.269531 147.625 C 276.632812 147.351562 277.269531 146.988281 277.90625 146.667969 C 278.589844 146.304688 278.953125 146.214844 279.636719 146.304688 C 280.273438 146.398438 280.367188 146.535156 280.457031 146.667969 C 280.546875 146.804688 280.640625 146.898438 280.546875 147.582031 C 280.457031 148.261719 280.183594 148.582031 279.683594 149.128906 C 279.136719 149.675781 278.589844 150.128906 278.226562 150.402344 C 277.863281 150.675781 274.632812 152.769531 274.632812 152.769531 L 274.539062 162.875 L 272.945312 164.378906 L 271.71875 159.007812 L 271.035156 159.507812 C 271.035156 159.507812 270.671875 159.78125 270.261719 159.234375 C 269.851562 158.6875 270.171875 158.414062 270.171875 158.414062 L 271.355469 157.550781 L 270.671875 155.546875 L 268.441406 157.09375 C 268.441406 157.09375 267.484375 157.867188 266.484375 158.371094 C 265.527344 158.871094 264.390625 159.324219 264.390625 159.324219 L 264.253906 162.511719 L 263.664062 162.875 L 262.796875 160.234375 L 261.523438 160.644531 C 261.523438 160.644531 261.25 160.738281 261.113281 160.507812 C 261.023438 160.234375 261.203125 160.007812 261.203125 160.007812 Z M 261.203125 160.007812 " fill-opacity="1" fill-rule="nonzero"/><g mask="url(#id2)"><g transform="matrix(1, 0, 0, 1, 191, 124)"><g clip-path="url(#id4)"><g clip-path="url(#id3)"><path fill="#f9b916" d="M 37.890625 21.351562 C 37.890625 30.136719 29.789062 37.28125 19.6875 37.28125 C 9.582031 37.28125 0.433594 30.179688 0.433594 21.351562 C 0.433594 12.519531 7.078125 0.410156 17.183594 0.410156 C 38.390625 0.410156 37.890625 12.519531 37.890625 21.351562 Z M 37.890625 21.351562 " fill-opacity="1" fill-rule="nonzero"/></g></g></g></g><g mask="url(#id5)"><g transform="matrix(1, 0, 0, 1, 134, 141)"><g clip-path="url(#id7)"><g clip-path="url(#id6)"><path fill="#f9b916" d="M 19.15625 35.714844 L 18.382812 35.714844 C 18.019531 35.714844 17.703125 35.398438 17.746094 34.988281 C 17.746094 34.625 18.109375 34.304688 18.476562 34.351562 C 19.660156 34.394531 20.84375 34.351562 21.980469 34.167969 C 22.34375 34.121094 22.707031 34.351562 22.753906 34.761719 C 22.800781 35.125 22.570312 35.488281 22.160156 35.535156 C 21.160156 35.671875 20.160156 35.714844 19.15625 35.714844 Z M 14.835938 35.261719 L 14.699219 35.261719 C 13.46875 34.988281 12.285156 34.625 11.148438 34.121094 C 10.785156 33.984375 10.648438 33.578125 10.785156 33.210938 C 10.921875 32.847656 11.328125 32.710938 11.695312 32.847656 C 12.785156 33.304688 13.878906 33.667969 15.015625 33.894531 C 15.378906 33.984375 15.609375 34.351562 15.515625 34.714844 C 15.425781 35.03125 15.152344 35.261719 14.835938 35.261719 Z M 25.53125 34.625 C 25.257812 34.625 24.984375 34.441406 24.890625 34.167969 C 24.757812 33.804688 24.9375 33.441406 25.300781 33.304688 C 26.394531 32.894531 27.441406 32.390625 28.441406 31.800781 C 28.761719 31.617188 29.171875 31.710938 29.398438 32.027344 C 29.625 32.347656 29.488281 32.757812 29.171875 32.984375 C 28.125 33.621094 26.984375 34.167969 25.800781 34.625 Z M 8.1875 32.4375 C 8.054688 32.4375 7.917969 32.390625 7.824219 32.300781 C 6.777344 31.574219 5.777344 30.800781 4.914062 29.890625 C 4.640625 29.617188 4.640625 29.207031 4.914062 28.933594 C 5.183594 28.660156 5.59375 28.660156 5.867188 28.933594 C 6.640625 29.753906 7.550781 30.480469 8.554688 31.164062 C 8.871094 31.390625 8.964844 31.800781 8.734375 32.121094 C 8.644531 32.347656 8.417969 32.4375 8.1875 32.4375 Z M 31.628906 30.84375 C 31.445312 30.84375 31.265625 30.800781 31.128906 30.664062 C 30.855469 30.390625 30.855469 29.980469 31.128906 29.707031 C 31.945312 28.886719 32.675781 27.976562 33.265625 27.019531 C 33.449219 26.703125 33.902344 26.609375 34.222656 26.792969 C 34.542969 26.976562 34.632812 27.429688 34.449219 27.75 C 33.8125 28.796875 32.992188 29.796875 32.082031 30.707031 C 31.992188 30.753906 31.808594 30.84375 31.628906 30.84375 Z M 3.226562 27.25 C 3 27.25 2.773438 27.113281 2.636719 26.929688 C 2 25.792969 1.5 24.609375 1.179688 23.425781 C 1.089844 23.058594 1.316406 22.695312 1.679688 22.605469 C 2.046875 22.515625 2.410156 22.742188 2.5 23.105469 C 2.773438 24.199219 3.183594 25.246094 3.773438 26.246094 C 3.957031 26.566406 3.867188 26.976562 3.546875 27.203125 C 3.457031 27.25 3.320312 27.25 3.226562 27.25 Z M 35.359375 24.699219 C 35.316406 24.699219 35.222656 24.699219 35.179688 24.652344 C 34.8125 24.5625 34.585938 24.152344 34.722656 23.789062 C 35.042969 22.695312 35.179688 21.558594 35.179688 20.417969 L 35.179688 20.328125 C 35.179688 19.964844 35.496094 19.644531 35.859375 19.644531 C 36.226562 19.644531 36.542969 19.964844 36.542969 20.328125 L 36.542969 20.417969 C 36.542969 21.695312 36.363281 22.96875 35.996094 24.199219 C 35.90625 24.515625 35.632812 24.699219 35.359375 24.699219 Z M 1.542969 20.328125 C 1.5 20.328125 1.5 20.328125 1.542969 20.328125 C 1.136719 20.328125 0.863281 20.011719 0.863281 19.601562 C 0.90625 18.417969 1.089844 17.140625 1.40625 15.914062 C 1.5 15.546875 1.863281 15.320312 2.226562 15.410156 C 2.589844 15.503906 2.820312 15.867188 2.726562 16.230469 C 2.453125 17.414062 2.273438 18.597656 2.226562 19.691406 C 2.183594 20.054688 1.910156 20.328125 1.542969 20.328125 Z M 35.816406 17.414062 C 35.453125 17.414062 35.132812 17.140625 35.132812 16.777344 C 35.085938 15.457031 34.996094 14.273438 34.8125 13.273438 C 34.769531 12.90625 34.996094 12.542969 35.359375 12.5 C 35.722656 12.453125 36.089844 12.679688 36.132812 13.042969 C 36.316406 14.136719 36.40625 15.320312 36.453125 16.730469 C 36.5 17.097656 36.226562 17.414062 35.816406 17.414062 Z M 3.136719 13.273438 C 3.046875 13.273438 2.957031 13.273438 2.863281 13.226562 C 2.5 13.089844 2.363281 12.679688 2.5 12.363281 C 2.957031 11.179688 3.5 10.085938 4.140625 8.992188 C 4.320312 8.675781 4.730469 8.539062 5.09375 8.765625 C 5.414062 8.949219 5.550781 9.355469 5.320312 9.722656 C 4.730469 10.722656 4.230469 11.769531 3.773438 12.863281 C 3.636719 13.136719 3.410156 13.273438 3.136719 13.273438 Z M 34.542969 10.3125 C 34.269531 10.3125 33.996094 10.132812 33.902344 9.902344 C 33.449219 8.8125 32.902344 7.855469 32.175781 6.988281 C 31.945312 6.71875 31.992188 6.261719 32.265625 6.035156 C 32.539062 5.804688 32.992188 5.851562 33.222656 6.125 C 33.996094 7.082031 34.675781 8.171875 35.132812 9.402344 C 35.269531 9.765625 35.085938 10.132812 34.769531 10.269531 C 34.722656 10.3125 34.632812 10.3125 34.542969 10.3125 Z M 6.824219 7.082031 C 6.6875 7.082031 6.503906 7.035156 6.367188 6.898438 C 6.097656 6.671875 6.050781 6.214844 6.277344 5.941406 C 7.140625 4.941406 8.054688 4.078125 9.007812 3.347656 C 9.328125 3.121094 9.738281 3.164062 9.964844 3.484375 C 10.191406 3.804688 10.144531 4.214844 9.828125 4.441406 C 8.964844 5.125 8.097656 5.941406 7.324219 6.851562 C 7.1875 6.988281 7.007812 7.082031 6.824219 7.082031 Z M 30.035156 4.851562 C 29.898438 4.851562 29.761719 4.804688 29.671875 4.757812 C 28.761719 4.167969 27.714844 3.667969 26.578125 3.300781 C 26.210938 3.164062 26.03125 2.800781 26.167969 2.4375 C 26.304688 2.074219 26.667969 1.890625 27.03125 2.027344 C 28.304688 2.484375 29.445312 2.984375 30.445312 3.621094 C 30.761719 3.804688 30.855469 4.257812 30.671875 4.578125 C 30.492188 4.714844 30.261719 4.851562 30.035156 4.851562 Z M 12.558594 2.757812 C 12.285156 2.757812 12.011719 2.574219 11.921875 2.347656 C 11.785156 1.980469 11.96875 1.617188 12.285156 1.4375 C 13.46875 0.933594 14.742188 0.664062 16.015625 0.570312 C 16.382812 0.527344 16.699219 0.84375 16.746094 1.207031 C 16.792969 1.574219 16.472656 1.890625 16.109375 1.9375 C 14.96875 2.027344 13.878906 2.253906 12.785156 2.710938 C 12.695312 2.757812 12.605469 2.757812 12.558594 2.757812 Z M 23.253906 2.4375 L 23.117188 2.4375 C 22.023438 2.253906 20.84375 2.117188 19.613281 2.027344 C 19.25 1.980469 18.929688 1.664062 18.976562 1.300781 C 19.019531 0.933594 19.339844 0.617188 19.703125 0.664062 C 20.976562 0.753906 22.253906 0.890625 23.390625 1.070312 C 23.753906 1.117188 24.027344 1.480469 23.9375 1.847656 C 23.890625 2.164062 23.574219 2.4375 23.253906 2.4375 Z M 23.253906 2.4375 " fill-opacity="1" fill-rule="nonzero"/></g></g></g></g><g mask="url(#id8)"><g transform="matrix(1, 0, 0, 1, 181, 156)"><g clip-path="url(#id10)"><g clip-path="url(#id9)"><path fill="#f9b916" d="M 4.925781 4.917969 C 4.925781 4.917969 3.515625 2.097656 2.515625 3.007812 C 1.421875 3.871094 3.699219 4.917969 3.699219 4.917969 C 3.699219 4.917969 0.375 5.601562 1.285156 6.285156 C 2.152344 6.96875 4.109375 6.285156 4.109375 6.285156 C 4.109375 6.285156 3.742188 8.699219 4.109375 9.242188 C 4.472656 9.789062 4.972656 6.832031 4.972656 6.832031 C 4.972656 6.832031 7.066406 10.472656 7.566406 9.335938 C 8.113281 8.242188 5.835938 6.195312 5.835938 6.195312 C 5.835938 6.195312 10.386719 5.375 9.339844 5.011719 C 8.25 4.644531 6.382812 5.011719 6.382812 5.011719 C 6.382812 5.011719 8.292969 1.050781 6.929688 1.414062 C 5.5625 1.777344 4.925781 4.917969 4.925781 4.917969 Z M 4.925781 4.917969 " fill-opacity="1" fill-rule="nonzero"/></g></g></g></g><g mask="url(#id11)"><g transform="matrix(1, 0, 0, 1, 216, 149)"><g clip-path="url(#id13)"><g clip-path="url(#id12)"><path fill="#f9b916" d="M 35.417969 16.015625 C 35.054688 16.015625 34.691406 16.015625 34.328125 15.96875 C 33.871094 15.925781 33.417969 15.878906 32.960938 15.789062 C 32.597656 15.742188 32.324219 15.378906 32.414062 15.015625 C 32.460938 14.648438 32.824219 14.378906 33.191406 14.46875 C 33.597656 14.558594 34.007812 14.605469 34.417969 14.605469 C 35.148438 14.648438 35.921875 14.648438 36.648438 14.605469 C 37.011719 14.558594 37.375 14.832031 37.375 15.242188 C 37.421875 15.605469 37.148438 15.96875 36.738281 15.96875 C 36.328125 15.96875 35.875 16.015625 35.417969 16.015625 Z M 40.289062 15.242188 C 40.015625 15.242188 39.742188 15.058594 39.652344 14.742188 C 39.5625 14.378906 39.742188 14.011719 40.109375 13.875 C 41.199219 13.511719 42.292969 13.058594 43.292969 12.511719 C 43.613281 12.328125 44.023438 12.464844 44.203125 12.785156 C 44.386719 13.101562 44.25 13.511719 43.929688 13.695312 C 42.839844 14.332031 41.65625 14.832031 40.472656 15.195312 C 40.425781 15.242188 40.378906 15.242188 40.289062 15.242188 Z M 29.683594 14.605469 C 29.59375 14.605469 29.457031 14.558594 29.367188 14.515625 C 28.363281 13.96875 27.320312 13.238281 26.273438 12.28125 C 26 12.011719 25.953125 11.601562 26.226562 11.328125 C 26.5 11.054688 26.910156 11.007812 27.183594 11.28125 C 28.136719 12.148438 29.046875 12.828125 30.003906 13.332031 C 30.320312 13.511719 30.457031 13.921875 30.277344 14.242188 C 30.1875 14.46875 29.914062 14.605469 29.683594 14.605469 Z M 24.179688 9.914062 C 23.996094 9.914062 23.8125 9.824219 23.675781 9.6875 L 23.175781 9.140625 C 22.539062 8.460938 21.902344 7.730469 21.21875 7.046875 C 20.945312 6.773438 20.945312 6.363281 21.21875 6.09375 C 21.492188 5.820312 21.902344 5.820312 22.175781 6.09375 C 22.859375 6.773438 23.539062 7.503906 24.179688 8.1875 L 24.679688 8.730469 C 24.953125 9.003906 24.90625 9.460938 24.632812 9.6875 C 24.496094 9.871094 24.359375 9.914062 24.179688 9.914062 Z M 18.945312 4.863281 C 18.808594 4.863281 18.671875 4.816406 18.535156 4.726562 C 17.625 4.042969 16.578125 3.453125 15.484375 2.996094 C 15.121094 2.859375 14.984375 2.449219 15.121094 2.085938 C 15.257812 1.722656 15.667969 1.585938 16.03125 1.722656 C 17.214844 2.222656 18.308594 2.859375 19.308594 3.589844 C 19.625 3.816406 19.671875 4.226562 19.445312 4.542969 C 19.355469 4.773438 19.171875 4.863281 18.945312 4.863281 Z M 2.058594 4.589844 C 1.875 4.589844 1.695312 4.5 1.558594 4.363281 C 1.332031 4.089844 1.332031 3.632812 1.605469 3.40625 C 2.558594 2.539062 3.652344 1.859375 4.878906 1.355469 C 5.246094 1.222656 5.609375 1.402344 5.789062 1.722656 C 5.925781 2.085938 5.746094 2.449219 5.425781 2.632812 C 4.378906 3.085938 3.378906 3.679688 2.558594 4.40625 C 2.378906 4.542969 2.242188 4.589844 2.058594 4.589844 Z M 12.300781 2.039062 L 12.164062 2.039062 C 10.980469 1.8125 9.839844 1.765625 8.703125 1.859375 C 8.339844 1.902344 8.019531 1.628906 7.976562 1.222656 C 7.929688 0.855469 8.203125 0.539062 8.613281 0.492188 C 9.839844 0.402344 11.117188 0.445312 12.4375 0.675781 C 12.800781 0.71875 13.074219 1.085938 12.980469 1.449219 C 12.890625 1.8125 12.617188 2.039062 12.300781 2.039062 Z M 12.300781 2.039062 " fill-opacity="1" fill-rule="nonzero"/></g></g></g></g><path fill="#30afff" d="M 162.671875 143.527344 C 162.671875 143.527344 160.441406 139.113281 158.847656 140.523438 C 157.164062 141.890625 160.714844 143.527344 160.714844 143.527344 C 160.714844 143.527344 155.523438 144.621094 156.890625 145.667969 C 158.253906 146.761719 161.304688 145.667969 161.304688 145.667969 C 161.304688 145.667969 160.757812 149.492188 161.304688 150.3125 C 161.851562 151.132812 162.671875 146.488281 162.671875 146.488281 C 162.671875 146.488281 165.945312 152.179688 166.765625 150.449219 C 167.585938 148.71875 164.035156 145.484375 164.035156 145.484375 C 164.035156 145.484375 171.179688 144.210938 169.542969 143.621094 C 167.859375 143.027344 164.898438 143.621094 164.898438 143.621094 C 164.898438 143.621094 167.949219 137.429688 165.765625 138.019531 C 163.582031 138.613281 162.671875 143.527344 162.671875 143.527344 Z M 162.671875 143.527344 " fill-opacity="1" fill-rule="nonzero"/><path fill="#30afff" d="M 157.027344 126.777344 C 157.027344 126.777344 155.25 123.226562 153.976562 124.363281 C 152.613281 125.457031 155.480469 126.777344 155.480469 126.777344 C 155.480469 126.777344 151.292969 127.640625 152.429688 128.503906 C 153.523438 129.371094 155.980469 128.503906 155.980469 128.503906 C 155.980469 128.503906 155.523438 131.554688 155.980469 132.238281 C 156.433594 132.921875 157.070312 129.1875 157.070312 129.1875 C 157.070312 129.1875 159.710938 133.742188 160.347656 132.375 C 161.03125 130.964844 158.164062 128.414062 158.164062 128.414062 C 158.164062 128.414062 163.898438 127.367188 162.578125 126.914062 C 161.214844 126.457031 158.847656 126.914062 158.847656 126.914062 C 158.847656 126.914062 161.257812 121.90625 159.53125 122.40625 C 157.800781 122.90625 157.027344 126.777344 157.027344 126.777344 Z M 157.027344 126.777344 " fill-opacity="1" fill-rule="nonzero"/><path fill="#30afff" d="M 214.464844 142.527344 C 214.464844 142.527344 213.417969 140.480469 212.6875 141.117188 C 211.914062 141.753906 213.554688 142.527344 213.554688 142.527344 C 213.554688 142.527344 211.140625 143.027344 211.777344 143.527344 C 212.414062 144.03125 213.828125 143.527344 213.828125 143.527344 C 213.828125 143.527344 213.554688 145.304688 213.828125 145.667969 C 214.097656 146.03125 214.464844 143.894531 214.464844 143.894531 C 214.464844 143.894531 215.964844 146.535156 216.375 145.714844 C 216.785156 144.894531 215.101562 143.4375 215.101562 143.4375 C 215.101562 143.4375 218.421875 142.847656 217.648438 142.574219 C 216.875 142.300781 215.511719 142.574219 215.511719 142.574219 C 215.511719 142.574219 216.921875 139.703125 215.917969 139.976562 C 214.871094 140.25 214.464844 142.527344 214.464844 142.527344 Z M 214.464844 142.527344 " fill-opacity="1" fill-rule="nonzero"/><g clip-path="url(#id14)"><path fill="#000000" d="M 187.449219 323.574219 C 112.410156 323.574219 51.324219 262.484375 51.324219 187.449219 C 51.324219 112.410156 112.410156 51.324219 187.449219 51.324219 C 262.484375 51.324219 323.574219 112.410156 323.574219 187.449219 C 323.574219 262.484375 262.484375 323.574219 187.449219 323.574219 Z M 187.449219 53.335938 C 113.484375 53.335938 53.335938 113.484375 53.335938 187.449219 C 53.335938 261.410156 113.484375 321.5625 187.449219 321.5625 C 261.410156 321.5625 321.5625 261.410156 321.5625 187.449219 C 321.5625 113.484375 261.410156 53.335938 187.449219 53.335938 Z M 187.449219 53.335938 " fill-opacity="1" fill-rule="nonzero"/></g></svg>